# xmcd CD database file
#
# Track frame offsets:
#	150
#	16611
#	31091
#	48498
#	62453
#	76582
#	87694
#	108085
#	123421
#	138794
#	157731
#	172338
#	188438
#	206368
#	223119
#
# Disc length: 3186 seconds
#
# Revision: 0
# Processed by: cddbd v1.5.2PL0 Copyright (c) Steve Scherf et al.
# Submitted via: CDex 1.70beta2
#
DISCID=b30c700f
DTITLE=Melanie Dekker - Lekker - Dekker Live 2010
DYEAR=2010
DGENRE=Country
TTITLE0=Lullaby
TTITLE1=Shakespeare Says
TTITLE2=We're The Angels
TTITLE3=Saturday Night Show
TTITLE4=Little Miracle
TTITLE5=What's All The Hype
TTITLE6=Hollow
TTITLE7=Oh Yeah
TTITLE8=Soul Back
TTITLE9=Blush
TTITLE10=Wounded Soldier
TTITLE11=Wishful Thinking
TTITLE12=I Said I
TTITLE13=Here and Now
TTITLE14=Flowers
EXTD=YEAR: 2010
EXTT0=
EXTT1=
EXTT2=
EXTT3=
EXTT4=
EXTT5=
EXTT6=
EXTT7=
EXTT8=
EXTT9=
EXTT10=
EXTT11=
EXTT12=
EXTT13=
EXTT14=
PLAYORDER=
